<?xml version="1.0" encoding="UTF-8"?>
<svg width="30px" height="31px" viewBox="0 0 30 31" version="1.1" xmlns="http://www.w3.org/2000/svg" xmlns:xlink="http://www.w3.org/1999/xlink">
    <!-- Generator: Sketch 53.2 (72643) - https://sketchapp.com -->
    <title>Path</title>
    <desc>Created with Sketch.</desc>
    <g id="Welcome" stroke="none" stroke-width="1" fill="none" fill-rule="evenodd">
        <g id="Desktop-HD" transform="translate(-136.000000, -349.000000)" fill="#FFFFFF" fill-rule="nonzero">
            <g id="Path" transform="translate(136.000000, 349.000000)">
                <path d="M29.6369263,0.223115074 C29.2190039,-0.12745563 28.6092792,-0.0569525062 28.2740951,0.378708174 L12.7940443,20.5255835 L7.72585434,13.9298947 C7.39067027,13.4937478 6.77953522,13.4232447 6.36255307,13.7743016 C5.94510082,14.1248723 5.87787597,14.7623178 6.21447035,15.1994372 L11.8223396,22.4982123 C11.9920471,22.8123158 12.3103074,23 12.6534833,23 C12.7075452,23 12.7620773,22.9839545 12.8175495,22.9742299 C12.8485764,22.9781197 12.8800733,22.9956239 12.9125105,22.9956239 C13.2190182,22.9956239 13.5175342,22.8405171 13.7060459,22.5774675 L29.7859492,1.6477644 C30.1220735,1.21161749 30.0548486,0.573685777 29.6369263,0.223115074 Z"></path>
                <path d="M28.0223119,10.2358799 C27.4823099,10.2358799 27.0455715,10.6883386 27.0455715,11.2465164 L27.0455715,27.9666354 C27.0455715,28.5238434 26.6069383,28.9777569 26.0678837,28.9777569 L2.93211587,28.9777569 C2.3925876,28.9777569 1.95442812,28.5238434 1.95442812,27.9666354 L1.95442812,4.03287964 C1.95442812,3.47615661 2.39306129,3.02224306 2.93211587,3.02224306 L18.9479106,3.02224306 C19.4883863,3.02224306 19.9251247,2.56929941 19.9251247,2.01063658 C19.9251247,1.45294365 19.4879126,1 18.9479106,1 L2.93211587,1 C1.31495212,1 0,2.3602858 0,4.03287964 L0,27.9666354 C0,29.6392293 1.31495212,31 2.93211587,31 L26.0674101,31 C27.6845738,31 28.9999996,29.6392293 28.9999996,27.9666354 L28.9999996,11.2465164 C29.0004733,10.6878536 28.5632612,10.2358799 28.0223119,10.2358799 Z"></path>
            </g>
        </g>
    </g>
</svg>